Coordinates
version=1
nRows=24
nColumns=24
inDegrees=yes

Units are S.I. units (second, meters, Newtons, ...)
Angles are in degrees.

endheader
time	pelvis_tilt	pelvis_list	pelvis_rotation	pelvis_tx	pelvis_ty	pelvis_tz	hip_flexion_r	hip_adduction_r	hip_rotation_r	knee_angle_r	ankle_angle_r	subtalar_angle_r	mtp_angle_r	hip_flexion_l	hip_adduction_l	hip_rotation_l	knee_angle_l	ankle_angle_l	subtalar_angle_l	mtp_angle_l	lumbar_extension	lumbar_bending	lumbar_rotation
      0.01000000	     91.03990460	     32.93115678	    -92.45555797	      1.02295528	      0.28567295	      1.07764809	     21.30098968	     -5.64982785	     -5.25078743	    -16.55275527	    -13.62945299	      0.00000000	      0.00000000	      9.97743134	     -7.31488774	     -6.33057217	    -72.61187702	    -10.64138292	      0.00000000	      0.00000000	      0.00000000	      0.00000000	      0.00000000
      0.02000000	     91.07421996	     32.92904204	    -92.48077555	      1.02296800	      0.28567303	      1.07772280	     21.29256483	     -5.67923303	     -5.23249889	    -16.54750544	    -13.62301666	      0.00000000	      0.00000000	      9.95913507	     -7.28266191	     -6.32920781	    -72.58131335	    -10.63451057	      0.00000000	      0.00000000	      0.00000000	      0.00000000	      0.00000000
      0.03000000	     91.10070033	     32.92553178	    -92.50758187	      1.02297065	      0.28569739	      1.07781093	     21.28363232	     -5.70332954	     -5.21459509	    -16.54284298	    -13.61637139	      0.00000000	      0.00000000	      9.93520232	     -7.24412674	     -6.32635251	    -72.55075072	    -10.62614444	      0.00000000	      0.00000000	      0.00000000	      0.00000000	      0.00000000
      0.04000000	     91.11883753	     32.91735534	    -92.53358231	      1.02294951	      0.28571841	      1.07786908	     21.27357191	     -5.71946307	     -5.19813782	    -16.54002609	    -13.60983274	      0.00000000	      0.00000000	      9.90716281	     -7.20572041	     -6.32152489	    -72.52360510	    -10.61637694	      0.00000000	      0.00000000	      0.00000000	      0.00000000	      0.00000000
      0.05000000	     91.12715687	     32.90201387	    -92.55595889	      1.02290103	      0.28573686	      1.07787265	     21.26118754	     -5.72695510	     -5.18464255	    -16.54046980	    -13.60386092	      0.00000000	      0.00000000	      9.87724032	     -7.17507316	     -6.31671289	    -72.50486373	    -10.60597478	      0.00000000	      0.00000000	      0.00000000	      0.00000000	      0.00000000
      0.06000000	     91.12467779	     32.87889787	    -92.57224473	      1.02284868	      0.28577460	      1.07783667	     21.24515289	     -5.72773645	     -5.17561919	    -16.54512361	    -13.59889079	      0.00000000	      0.00000000	      9.84811059	     -7.15868719	     -6.31630208	    -72.49914993	    -10.59641824	      0.00000000	      0.00000000	      0.00000000	      0.00000000	      0.00000000
      0.07000000	     91.11249744	     32.84967605	    -92.58115686	      1.02282562	      0.28583891	      1.07779878	     21.22508255	     -5.72459791	     -5.17195409	    -16.55389038	    -13.59512169	      0.00000000	      0.00000000	      9.82206390	     -7.15930882	     -6.32442561	    -72.50798762	    -10.58939056	      0.00000000	      0.00000000	      0.00000000	      0.00000000	      0.00000000
      0.08000000	     91.09347974	     32.81810669	    -92.58358794	      1.02283274	      0.28592208	      1.07777009	     21.20253103	     -5.71934491	     -5.17338358	    -16.56534546	    -13.59240796	      0.00000000	      0.00000000	      9.79989386	     -7.17400188	     -6.34177046	    -72.52803836	    -10.58598744	      0.00000000	      0.00000000	      0.00000000	      0.00000000	      0.00000000
      0.09000000	     91.07146423	     32.78871675	    -92.58263096	      1.02284177	      0.28601532	      1.07773743	     21.18081363	     -5.71256342	     -5.17834240	    -16.57713133	    -13.59033344	      0.00000000	      0.00000000	      9.78107130	     -7.19542116	     -6.36464112	    -72.55198395	    -10.58616942	      0.00000000	      0.00000000	      0.00000000	      0.00000000	      0.00000000
      0.10000000	     91.05100382	     32.76513215	    -92.58198660	      1.02283820	      0.28609088	      1.07770701	     21.16346050	     -5.70462323	     -5.18431239	    -16.58699242	    -13.58842442	      0.00000000	      0.00000000	      9.76505221	     -7.21575677	     -6.38713017	    -72.57188280	    -10.58886167	      0.00000000	      0.00000000	      0.00000000	      0.00000000	      0.00000000
      0.11000000	     91.03610699	     32.74920817	    -92.58424553	      1.02283097	      0.28612153	      1.07769071	     21.15259716	     -5.69661574	     -5.18857475	    -16.59370497	    -13.58637835	      0.00000000	      0.00000000	      9.75198712	     -7.22977268	     -6.40452918	    -72.58274096	    -10.59262208	      0.00000000	      0.00000000	      0.00000000	      0.00000000	      0.00000000
      0.12000000	     91.02850514	     32.74098902	    -92.59020671	      1.02282875	      0.28611560	      1.07768403	     21.14843530	     -5.69036472	     -5.18910631	    -16.59725962	    -13.58420974	      0.00000000	      0.00000000	      9.74238711	     -7.23539121	     -6.41540331	    -72.58404282	    -10.59638685	      0.00000000	      0.00000000	      0.00000000	      0.00000000	      0.00000000
      0.13000000	     91.02740521	     32.73911855	    -92.59909843	      1.02283106	      0.28610227	      1.07768244	     21.14973020	     -5.68751034	     -5.18526334	    -16.59844756	    -13.58224840	      0.00000000	      0.00000000	      9.73655115	     -7.23302065	     -6.42126183	    -72.57874217	    -10.59981070	      0.00000000	      0.00000000	      0.00000000	      0.00000000	      0.00000000
      0.14000000	     91.03071492	     32.74144900	    -92.60931304	      1.02283688	      0.28610134	      1.07768688	     21.15454476	     -5.68843014	     -5.17794830	    -16.59832989	    -13.58095341	      0.00000000	      0.00000000	      9.73433725	     -7.22480790	     -6.42468349	    -72.57089392	    -10.60307676	      0.00000000	      0.00000000	      0.00000000	      0.00000000	      0.00000000
      0.15000000	     91.03627580	     32.74577954	    -92.61912790	      1.02284643	      0.28611045	      1.07769572	     21.16095973	     -5.69196198	     -5.16918589	    -16.59783738	    -13.58060413	      0.00000000	      0.00000000	      9.73521945	     -7.21388437	     -6.42755677	    -72.56364475	    -10.60643867	      0.00000000	      0.00000000	      0.00000000	      0.00000000	      0.00000000
      0.16000000	     91.04226286	     32.75053255	    -92.62712130	      1.02285769	      0.28611665	      1.07770458	     21.16758139	     -5.69609219	     -5.16131705	    -16.59755186	    -13.58105021	      0.00000000	      0.00000000	      9.73841775	     -7.20344860	     -6.43042770	    -72.55850744	    -10.60987065	      0.00000000	      0.00000000	      0.00000000	      0.00000000	      0.00000000
      0.17000000	     91.04714481	     32.75507381	    -92.63230400	      1.02286726	      0.28611514	      1.07771060	     21.17373731	     -5.69892874	     -5.15617992	    -16.59768425	    -13.58169192	      0.00000000	      0.00000000	      9.74307888	     -7.19596719	     -6.43284578	    -72.55573929	    -10.61302034	      0.00000000	      0.00000000	      0.00000000	      0.00000000	      0.00000000
      0.18000000	     91.04975405	     32.75951922	    -92.63412047	      1.02287314	      0.28610982	      1.07771296	     21.17934302	     -5.69929000	     -5.15459512	    -16.59821050	    -13.58171744	      0.00000000	      0.00000000	      9.74857430	     -7.19273587	     -6.43412366	    -72.55506864	    -10.61540757	      0.00000000	      0.00000000	      0.00000000	      0.00000000	      0.00000000
      0.19000000	     91.04950189	     32.76418309	    -92.63254217	      1.02287667	      0.28610179	      1.07771207	     21.18459614	     -5.69680138	     -5.15627543	    -16.59905366	    -13.58046600	      0.00000000	      0.00000000	      9.75476850	     -7.19380625	     -6.43395019	    -72.55616086	    -10.61669761	      0.00000000	      0.00000000	      0.00000000	      0.00000000	      0.00000000
      0.20000000	     91.04656347	     32.76913020	    -92.62821084	      1.02288067	      0.28608796	      1.07770838	     21.18975757	     -5.69175859	     -5.16009077	    -16.60018472	    -13.57771715	      0.00000000	      0.00000000	      9.76187682	     -7.19822003	     -6.43257217	    -72.55875699	    -10.61689123	      0.00000000	      0.00000000	      0.00000000	      0.00000000	      0.00000000
      0.21000000	     91.04187726	     32.77410079	    -92.62237827	      1.02288597	      0.28606973	      1.07770105	     21.19511725	     -5.68497573	     -5.16451903	    -16.60159728	    -13.57376785	      0.00000000	      0.00000000	      9.76993872	     -7.20440960	     -6.43062664	    -72.56259172	    -10.61633229	      0.00000000	      0.00000000	      0.00000000	      0.00000000	      0.00000000
      0.22000000	     91.03683765	     32.77876634	    -92.61661748	      1.02289072	      0.28605522	      1.07768934	     21.20092143	     -5.67767235	     -5.16810269	    -16.60328132	    -13.56928872	      0.00000000	      0.00000000	      9.77843197	     -7.21062236	     -6.42885058	    -72.56717596	    -10.61554126	      0.00000000	      0.00000000	      0.00000000	      0.00000000	      0.00000000
      0.23000000	     91.03283739	     32.78300289	    -92.61241661	      1.02289295	      0.28605011	      1.07767400	     21.20717962	     -5.67123699	     -5.16979422	    -16.60527441	    -13.56505675	      0.00000000	      0.00000000	      9.78639394	     -7.21530335	     -6.42784269	    -72.57164664	    -10.61498640	      0.00000000	      0.00000000	      0.00000000	      0.00000000	      0.00000000
      0.24000000	     91.03094558	     32.78689160	    -92.61076734	      1.02289302	      0.28605332	      1.07765844	     21.21360399	     -5.66675563	     -5.16914674	    -16.60768948	    -13.56169822	      0.00000000	      0.00000000	      9.79288617	     -7.21738604	     -6.42796089	    -72.57492250	    -10.61491822	      0.00000000	      0.00000000	      0.00000000	      0.00000000	      0.00000000
